<?xml version="1.0" encoding="utf-8"?>
<!-- Generator: Adobe Illustrator 16.0.0, SVG Export Plug-In . SVG Version: 6.00 Build 0)  -->
<!DOCTYPE svg PUBLIC "-//W3C//DTD SVG 1.1//EN" "http://www.w3.org/Graphics/SVG/1.1/DTD/svg11.dtd">
<svg version="1.1" xmlns="http://www.w3.org/2000/svg" xmlns:xlink="http://www.w3.org/1999/xlink" x="0px" y="0px" width="750px"
	 height="500px" viewBox="0 0 750 500" enable-background="new 0 0 750 500" xml:space="preserve">
<g id="Layer_2">
	
		<rect x="1" y="-1.051" fill="#020202" stroke="#323232" stroke-width="5" stroke-miterlimit="10" width="749.458" height="500.848"/>
</g>
<g id="Layer_1">
	<g>
		
			<rect x="25.729" y="178.628" fill="#F29C1F" stroke="#050606" stroke-width="5" stroke-miterlimit="10" width="468.667" height="131.625"/>
		<path d="M62.957,241.74c0,4.331,0.527,8.278,1.585,11.834c1.057,3.563,2.553,6.616,4.486,9.159
			c1.933,2.546,4.251,4.519,6.956,5.907c2.705,1.39,5.705,2.084,8.997,2.084c3.058,0,6.092-0.474,9.101-1.43
			c3.007-0.953,5.887-2.328,8.644-4.112v10.557c-2.52,1.586-5.346,2.79-8.469,3.606c-3.126,0.813-6.534,1.225-10.233,1.225
			c-4.604,0-8.828-0.956-12.677-2.864c-3.847-1.907-7.158-4.573-9.928-7.995c-2.772-3.414-4.922-7.505-6.453-12.256
			c-1.528-4.75-2.292-9.991-2.292-15.715c0-5.886,0.822-11.307,2.471-16.253c1.644-4.954,3.921-9.22,6.83-12.8
			c2.906-3.578,6.351-6.371,10.333-8.376c3.98-2.011,8.307-3.014,12.977-3.014c1.58,0,3.179,0.106,4.79,0.329
			c1.612,0.219,3.191,0.517,4.739,0.895c1.543,0.375,3.017,0.815,4.411,1.31c1.395,0.5,2.662,1.043,3.805,1.639v10.501
			c-1.177-0.597-2.489-1.194-3.93-1.792c-1.447-0.597-2.942-1.119-4.487-1.579c-1.547-0.457-3.126-0.823-4.738-1.101
			c-1.616-0.28-3.175-0.422-4.69-0.422c-3.159,0-6.09,0.73-8.795,2.177c-2.705,1.455-5.046,3.515-7.031,6.177
			c-1.981,2.666-3.545,5.885-4.688,9.664C63.526,232.869,62.957,237.087,62.957,241.74z"/>
		<path fill="#020202" d="M175.42,239.165c0.174,6.241-0.381,11.894-1.667,16.954c-1.289,5.061-3.218,9.38-5.788,12.965
			c-2.574,3.578-5.747,6.361-9.526,8.34c-3.776,1.978-8.082,3.025-12.919,3.138c-4.636,0.109-8.861-0.717-12.676-2.477
			c-3.813-1.759-7.096-4.307-9.844-7.642c-2.751-3.337-4.914-7.374-6.49-12.107c-1.581-4.74-2.449-10.03-2.613-15.871
			c-0.171-6.125,0.384-11.696,1.674-16.72c1.286-5.023,3.243-9.321,5.864-12.909c2.626-3.58,5.867-6.373,9.726-8.372
			c3.86-2,8.276-3.059,13.25-3.176c4.532-0.106,8.673,0.732,12.421,2.512c3.749,1.782,6.97,4.339,9.669,7.677
			c2.699,3.337,4.818,7.354,6.366,12.05C174.408,228.23,175.259,233.437,175.42,239.165z M165.278,240.657
			c-0.131-4.691-0.687-8.885-1.664-12.583c-0.98-3.696-2.361-6.816-4.147-9.357c-1.783-2.542-3.956-4.473-6.514-5.784
			c-2.558-1.311-5.48-1.932-8.776-1.854c-3.158,0.075-6,0.873-8.53,2.379c-2.528,1.514-4.662,3.601-6.404,6.271
			c-1.739,2.664-3.055,5.853-3.943,9.549c-0.886,3.7-1.269,7.776-1.144,12.228c0.124,4.45,0.708,8.495,1.751,12.131
			c1.042,3.637,2.482,6.727,4.317,9.266c1.836,2.547,4.026,4.502,6.57,5.876c2.542,1.367,5.356,2.018,8.45,1.945
			c3.291-0.079,6.209-0.813,8.76-2.204c2.549-1.393,4.681-3.371,6.39-5.936c1.709-2.572,2.984-5.701,3.822-9.4
			C165.055,249.483,165.409,245.309,165.278,240.657z"/>
		<path fill="#020202" d="M246.936,279.498h-9.728l-31.907-50.107c-0.238-0.319-0.629-0.963-1.184-1.938
			c-0.555-0.974-1.145-2.041-1.765-3.189c-0.623-1.156-1.219-2.291-1.791-3.401c-0.571-1.115-0.992-1.97-1.261-2.567v61.204h-9.172
			V202.31h10.434l30.446,48.375c0.502,0.836,1.093,1.839,1.763,3.013c0.671,1.174,1.328,2.368,1.965,3.576
			c0.639,1.213,1.236,2.367,1.791,3.459c0.555,1.097,0.983,1.983,1.285,2.659V202.31h9.124V279.498z"/>
		<path fill="#070808" d="M302.684,212.331h-16.433v67.167h-9.88v-67.167H259.84V202.31h42.844V212.331z"/>
		<path fill="#020202" d="M367.403,279.498h-10.634l-7.307-22.133h-25.103l-6.805,22.133H306.92l25.3-77.188h9.579L367.403,279.498z
			 M338.221,220.862c-0.168-0.557-0.38-1.363-0.629-2.417c-0.253-1.051-0.465-2.158-0.632-3.312h-0.201
			c-0.168,1.233-0.381,2.378-0.63,3.43c-0.253,1.057-0.496,1.937-0.729,2.657l-7.914,25.888h19.002L338.221,220.862z"/>
		<path fill="#020202" d="M383.684,241.74c0,4.331,0.532,8.278,1.592,11.834c1.058,3.563,2.551,6.616,4.483,9.159
			c1.934,2.546,4.253,4.519,6.956,5.907c2.707,1.39,5.709,2.084,8.998,2.084c3.059,0,6.093-0.474,9.096-1.43
			c3.009-0.953,5.894-2.328,8.645-4.112v10.557c-2.52,1.586-5.34,2.79-8.466,3.606c-3.123,0.813-6.536,1.225-10.229,1.225
			c-4.606,0-8.835-0.956-12.682-2.864c-3.849-1.907-7.156-4.573-9.929-7.995c-2.772-3.414-4.927-7.505-6.45-12.256
			c-1.531-4.75-2.295-9.991-2.295-15.715c0-5.886,0.826-11.307,2.469-16.253c1.648-4.954,3.924-9.22,6.83-12.8
			c2.908-3.578,6.355-6.371,10.335-8.376c3.983-2.011,8.309-3.014,12.979-3.014c1.579,0,3.176,0.106,4.792,0.329
			c1.607,0.219,3.189,0.517,4.734,0.895c1.547,0.375,3.015,0.815,4.41,1.31c1.395,0.5,2.663,1.043,3.808,1.639v10.501
			c-1.18-0.597-2.488-1.194-3.934-1.792c-1.442-0.597-2.939-1.119-4.485-1.579c-1.544-0.457-3.123-0.823-4.735-1.101
			c-1.615-0.28-3.178-0.422-4.691-0.422c-3.161,0-6.09,0.73-8.794,2.177c-2.707,1.455-5.05,3.515-7.032,6.177
			c-1.982,2.666-3.544,5.885-4.686,9.664C384.256,232.869,383.684,237.087,383.684,241.74z"/>
		<path fill="#070808" d="M475.676,212.331h-16.432v67.167h-9.882v-67.167h-16.533V202.31h42.847V212.331z"/>
		
			<rect x="498.141" y="178.628" fill="#070808" stroke="#050606" stroke-width="5" stroke-miterlimit="10" width="219.962" height="131.625"/>
		<path fill="#F29C1F" d="M546.659,228.715c0-3.938-0.812-6.996-2.444-9.184s-4.007-3.282-7.13-3.282
			c-1.377,0-2.84,0.249-4.388,0.744c-1.548,0.498-3.065,1.163-4.559,2.001c-1.497,0.835-2.926,1.789-4.289,2.862
			c-1.356,1.07-2.527,2.186-3.499,3.341v-10.799c0.972-1.071,2.114-2.09,3.427-3.044c1.31-0.955,2.728-1.786,4.258-2.505
			c1.532-0.713,3.151-1.29,4.862-1.726c1.719-0.435,3.481-0.655,5.296-0.655c2.922,0,5.562,0.485,7.915,1.457
			c2.349,0.979,4.342,2.378,5.973,4.208c1.626,1.83,2.891,4.028,3.78,6.591c0.89,2.563,1.334,5.437,1.334,8.621
			c0,3.297-0.345,6.292-1.034,8.974c-0.688,2.687-1.646,5.25-2.869,7.697c-1.228,2.445-2.675,4.872-4.339,7.28
			c-1.66,2.401-3.486,5.02-5.468,7.842l-11.037,15.864h26.915v9.663h-38.811v-8.411l15.373-22.488
			c1.613-2.383,3.079-4.569,4.409-6.562c1.325-1.984,2.465-3.933,3.403-5.841c0.941-1.914,1.664-3.879,2.168-5.904
			C546.408,233.427,546.659,231.182,546.659,228.715z"/>
		<path fill="#F29C1F" d="M615.416,264.744h-9.376v19.921h-9.626v-19.921h-27.575l-0.603-3.521c0.369-2.504,1.166-5.385,2.395-8.646
			c1.223-3.262,2.714-6.663,4.459-10.2c1.749-3.543,3.672-7.099,5.772-10.676c2.096-3.582,4.2-6.953,6.302-10.112
			c2.1-3.162,4.113-5.996,6.049-8.5c1.93-2.505,3.62-4.452,5.065-5.845h7.762v48.496h9.376V264.744z M596.414,255.738v-29.826
			c0-0.56,0-1.186,0-1.879c0-0.695,0.029-1.42,0.099-2.177c-0.166,0.201-0.283,0.405-0.353,0.625
			c-0.067,0.22-0.184,0.431-0.353,0.625c-0.502,0.597-1.193,1.514-2.066,2.746c-0.878,1.232-1.842,2.682-2.896,4.355
			c-1.06,1.668-2.186,3.519-3.379,5.548c-1.193,2.024-2.353,4.154-3.478,6.379c-1.128,2.226-2.193,4.497-3.202,6.801
			s-1.886,4.571-2.619,6.801H596.414z"/>
		<path fill="#F29C1F" d="M661.436,235.692l-15.375,23.921c1.211,1.907,2.479,3.93,3.806,6.054c1.326,2.127,2.663,4.285,4.009,6.471
			c1.345,2.188,2.678,4.344,4.006,6.474c1.328,2.128,2.58,4.144,3.756,6.054h-10.733l-9.18-15.864
			c-0.197-0.4-0.471-0.905-0.801-1.521c-0.339-0.615-0.593-1.047-0.757-1.281c-0.167,0.234-0.413,0.666-0.733,1.281
			c-0.316,0.616-0.576,1.121-0.78,1.521l-9.428,15.864h-10.532l16.027-24.694c-1.172-1.909-2.402-3.895-3.677-5.965
			c-1.276-2.065-2.558-4.143-3.83-6.233c-1.278-2.083-2.55-4.146-3.809-6.175c-1.263-2.025-2.475-3.992-3.655-5.906h10.736
			l8.063,14.258c0.104,0.2,0.247,0.479,0.431,0.836c0.185,0.358,0.379,0.725,0.579,1.107c0.202,0.375,0.385,0.752,0.556,1.13
			c0.167,0.375,0.304,0.665,0.406,0.865c0.1-0.24,0.242-0.548,0.427-0.924c0.181-0.377,0.378-0.769,0.579-1.166
			c0.197-0.396,0.395-0.764,0.58-1.101c0.184-0.336,0.326-0.585,0.428-0.748c1.511-2.506,2.931-4.893,4.261-7.158
			c1.325-2.266,2.761-4.633,4.309-7.101H661.436z"/>
		<path fill="#F29C1F" d="M710.884,210.642c-2.792,5.926-5.513,11.891-8.165,17.893c-2.655,6.008-5.193,12.08-7.609,18.225
			c-2.421,6.141-4.682,12.365-6.782,18.672c-2.101,6.302-4.007,12.715-5.719,19.233h-9.884v-2.682
			c0.974-3.342,2.103-6.909,3.381-10.712c1.273-3.797,2.661-7.681,4.157-11.658c1.492-3.979,3.049-7.951,4.664-11.929
			c1.612-3.977,3.216-7.814,4.811-11.513c1.597-3.698,3.168-7.158,4.716-10.377c1.541-3.225,2.974-6.067,4.284-8.531h-29.842v-9.783
			h40.073L710.884,210.642z"/>
	</g>
</g>
</svg>
