<?xml version="1.0" encoding="utf-8"?>
<!-- Generator: Adobe Illustrator 16.0.0, SVG Export Plug-In . SVG Version: 6.00 Build 0)  -->
<!DOCTYPE svg PUBLIC "-//W3C//DTD SVG 1.1//EN" "http://www.w3.org/Graphics/SVG/1.1/DTD/svg11.dtd">
<svg version="1.1" xmlns="http://www.w3.org/2000/svg" xmlns:xlink="http://www.w3.org/1999/xlink" x="0px" y="0px" width="480px"
	 height="800px" viewBox="0 0 480 800" enable-background="new 0 0 480 800" xml:space="preserve">
<g id="Layer_2">
	<rect x="0.595" y="-1.081" stroke="#000000" stroke-miterlimit="10" width="479.405" height="803.081"/>
</g>
<g id="Layer_1">
	<linearGradient id="SVGID_1_" gradientUnits="userSpaceOnUse" x1="278.6016" y1="458.6816" x2="406.5938" y2="458.6816">
		<stop  offset="0.0323" style="stop-color:#231F20"/>
		<stop  offset="0.1882" style="stop-color:#D0D2D3"/>
		<stop  offset="0.4086" style="stop-color:#231F20"/>
		<stop  offset="0.7688" style="stop-color:#000000"/>
		<stop  offset="0.9032" style="stop-color:#808184"/>
		<stop  offset="0.9839" style="stop-color:#231F20"/>
	</linearGradient>
	<rect x="278.602" y="450.472" fill="url(#SVGID_1_)" width="127.992" height="16.421"/>
	<rect x="278.966" y="268.63" fill="#80807F" width="4.064" height="178.276"/>
	<rect x="400.422" y="268.958" fill="#80807F" width="4.825" height="178.276"/>
	<linearGradient id="SVGID_2_" gradientUnits="userSpaceOnUse" x1="278.3975" y1="258.6367" x2="406.3916" y2="258.6367">
		<stop  offset="0.0323" style="stop-color:#231F20"/>
		<stop  offset="0.1882" style="stop-color:#D0D2D3"/>
		<stop  offset="0.4086" style="stop-color:#231F20"/>
		<stop  offset="0.7688" style="stop-color:#000000"/>
		<stop  offset="0.9032" style="stop-color:#808184"/>
		<stop  offset="0.9839" style="stop-color:#231F20"/>
	</linearGradient>
	<rect x="278.397" y="250.426" fill="url(#SVGID_2_)" width="127.994" height="16.421"/>
	<linearGradient id="SVGID_3_" gradientUnits="userSpaceOnUse" x1="312.9365" y1="238.6987" x2="372.8701" y2="238.6987">
		<stop  offset="0.0323" style="stop-color:#231F20"/>
		<stop  offset="0.1882" style="stop-color:#D0D2D3"/>
		<stop  offset="0.4086" style="stop-color:#231F20"/>
		<stop  offset="0.7688" style="stop-color:#000000"/>
		<stop  offset="0.9032" style="stop-color:#808184"/>
		<stop  offset="0.9839" style="stop-color:#231F20"/>
	</linearGradient>
	<rect x="312.937" y="230.488" fill="url(#SVGID_3_)" width="59.934" height="16.421"/>
	<linearGradient id="SVGID_4_" gradientUnits="userSpaceOnUse" x1="285.4688" y1="434.5674" x2="399.2383" y2="434.5674">
		<stop  offset="0.0323" style="stop-color:#EC1C24"/>
		<stop  offset="0.1882" style="stop-color:#FAAF40"/>
		<stop  offset="0.4086" style="stop-color:#EC1C24"/>
		<stop  offset="0.7688" style="stop-color:#EC1C24"/>
		<stop  offset="0.9032" style="stop-color:#F6921E"/>
		<stop  offset="0.9839" style="stop-color:#EC1C24"/>
	</linearGradient>
	<rect x="285.469" y="426.357" fill="url(#SVGID_4_)" width="113.77" height="16.42"/>
	<linearGradient id="SVGID_5_" gradientUnits="userSpaceOnUse" x1="328.6006" y1="348.6206" x2="357.4688" y2="348.6206">
		<stop  offset="0.0323" style="stop-color:#EC1C24"/>
		<stop  offset="0.1882" style="stop-color:#FAAF40"/>
		<stop  offset="0.4086" style="stop-color:#EC1C24"/>
		<stop  offset="0.7688" style="stop-color:#EC1C24"/>
		<stop  offset="0.9032" style="stop-color:#F6921E"/>
		<stop  offset="0.9839" style="stop-color:#EC1C24"/>
	</linearGradient>
	<path fill="url(#SVGID_5_)" d="M353.361,307.706l-0.667,1.998l-1.109,2.211l-0.89,2.355l-0.556,2.354l-0.665,3.067l-0.445,3.496
		l-0.666,4.066l-0.221,3.497l-0.667,3.994l-0.444,7.563v3.496l-0.889,6.921l-0.222,3.495l0.222,3.353l0.444,3.066v8.133
		l-2.774,3.567l-1.777,0.571l-1.888-0.571l-1.11-1.641l0.666-1.57l-0.889-3.066l-0.22-3.425l-1.112-6.563l-0.889-2.141l-0.998-2.64
		v-5.85l-0.666-2.212v-2.495l0.888-1.428l-0.444-1.783v-4.067l-0.666-1.926l-0.221-1.997l-1.557-2.212l-1.331-5.422v-2.924
		l-1.001-3.638l0.779-2.783v-2.782l-0.779-1.926l-0.886-2.141l-1.111-2.211v-1.927l0.445-1.426l0.666-1.355l2.553-1.284l3.108-0.714
		h3.664l4.108,0.143l2.775,0.856l2.442,0.999l1.776,1.355l1.667,1.426l0.888,1.499L353.361,307.706z M357.469,386.609l-1.11,1.854
		l-2.11,4.565l-3.553,0.856l-2.109,1.285l-2.665,1.925l-3.886,0.714l-3.887,0.643l-2.775-3.996l-2.443-1.283l-0.665-2.214
		l1.11-1.283l1.332-1.783l2.775-1.57l3.443-1.212l3.108-0.572l2.997,0.714l2.222,0.285l2.554-0.427l2.441-0.714l2.554,0.714
		L357.469,386.609z"/>
	<path fill="none" stroke="#FCFDFF" stroke-width="5" stroke-miterlimit="10" d="M280.633,344.912
		c-31.104,0.669-57.081-23.188-75.17-51.604"/>
	<path fill="none" stroke="#F9F9F9" stroke-width="5" stroke-miterlimit="10" d="M202.375,351.952
		c12.328,3.318,25.621,7.486,38.827,8.21c6.92,0.38,14.433,0.68,21.336,0c6.448-0.635,11.857-3.782,18.056-3.519"/>
	<path fill="#050505" stroke="#FFFFFF" stroke-width="5" stroke-miterlimit="10" d="M204.487,392.11
		c0,11.505-8.077,20.83-18.041,20.83H97.583c-9.963,0-18.041-9.325-18.041-20.83V239.075c0-11.504,8.077-20.831,18.041-20.831
		h88.863c9.964,0,18.041,9.326,18.041,20.831V392.11z"/>
	<path fill="#050505" stroke="#FFFFFF" stroke-width="3" stroke-miterlimit="10" d="M95.248,273.369c0,5.507-3.865,9.97-8.635,9.97
		H72.392c-4.769,0-8.635-4.463-8.635-9.97l0,0c0-5.506,3.866-9.969,8.635-9.969h14.221C91.382,263.4,95.248,267.863,95.248,273.369
		L95.248,273.369z"/>
	<path fill="#050505" stroke="#FFFFFF" stroke-width="3" stroke-miterlimit="10" d="M95.045,322.395
		c0,5.506-3.867,9.971-8.635,9.971H72.189c-4.77,0-8.635-4.465-8.635-9.971l0,0c0-5.506,3.866-9.97,8.635-9.97H86.41
		C91.178,312.425,95.045,316.889,95.045,322.395L95.045,322.395z"/>
	<path fill="#050505" stroke="#FFFFFF" stroke-width="3" stroke-miterlimit="10" d="M96.061,366.966
		c0,5.506-3.867,9.971-8.636,9.971H73.205c-4.77,0-8.635-4.465-8.635-9.971l0,0c0-5.506,3.866-9.971,8.635-9.971h14.221
		C92.194,356.995,96.061,361.46,96.061,366.966L96.061,366.966z"/>
	<path fill="#050505" stroke="#FFFFFF" stroke-width="3" stroke-miterlimit="10" d="M219.991,297.765
		c0,5.506-3.867,9.971-8.636,9.971h-14.221c-4.77,0-8.635-4.465-8.635-9.971l0,0c0-5.506,3.866-9.969,8.635-9.969h14.221
		C216.124,287.795,219.991,292.259,219.991,297.765L219.991,297.765z"/>
	
		<ellipse fill="#FFFFFF" stroke="#F9F9F9" stroke-width="5" stroke-miterlimit="10" cx="147.053" cy="288.029" rx="17.777" ry="20.526"/>
	<path fill="#FFFFFF" stroke="#F9F9F9" stroke-width="5" stroke-miterlimit="10" d="M180.596,362.036v-9.194
		c0-11.503-6.86-20.83-15.323-20.83h-32.335c-8.462,0-15.322,9.327-15.322,20.83v9.194H180.596z"/>
	<polyline fill="#FFFFFF" points="210.013,315.545 208.998,350.731 230.33,356.595 256.741,357.768 271.978,356.595 
		279.048,357.722 	"/>
	<g>
		<g>
			<path fill="#FFFFFF" d="M255.902,348.497c6.951-1.848,13.635,2.464,20.002,4.692c3.052,1.068,4.353-3.764,1.33-4.821
				c-7.471-2.614-14.532-6.854-22.662-4.692C251.459,344.503,252.782,349.327,255.902,348.497L255.902,348.497z"/>
		</g>
	</g>
	<g>
		<g>
			<path fill="#020202" d="M212.223,315.657c3.698-1.4,7.533-2.573,10.754-4.943c2.567-1.889,0.078-6.231-2.523-4.317
				c-2.893,2.128-6.241,3.183-9.56,4.439C207.908,311.965,209.202,316.8,212.223,315.657L212.223,315.657z"/>
		</g>
	</g>
	
		<line fill="none" stroke="#020202" stroke-width="3" stroke-miterlimit="10" x1="209.526" y1="314.419" x2="209.526" y2="358.989"/>
	<g>
		<g>
			<path fill="#FCFDFF" d="M216.883,321.27c0.674-0.475,0.907-0.559,1.587-0.514c-0.483-0.032,0.223,0.042,0.274,0.05
				c0.401,0.066,0.807,0.136,1.214,0.125c2.322-0.058,3.192-2.148,3.243-4.166c0.07-2.829-4.218-3.398-4.911-0.665
				c-0.438,1.728-0.353,3.339,0.528,4.91c0.566,1.009,1.374,1.645,1.414,2.792c0.112,3.215,5.113,3.226,5,0
				c-0.054-1.554-0.461-2.963-1.349-4.246c-0.298-0.43-0.616-0.835-0.873-1.293c0.203,0.362-0.042-0.372-0.014-0.051
				c-0.028-0.325,0.033-0.457,0.115-0.783c-1.637-0.222-3.274-0.443-4.911-0.665c-0.031,0.41-0.03,0.517,0.003,0.32
				c0.173-0.983,1.159-1.198,1.869-1.102c-0.535-0.073-1.066-0.167-1.603-0.229c-1.445-0.167-2.947,0.376-4.11,1.196
				c-1.112,0.783-1.63,2.169-0.897,3.42C214.107,321.473,215.767,322.056,216.883,321.27L216.883,321.27z"/>
		</g>
	</g>
</g>
<g id="Layer_3">
	<g>
		
			<rect x="24.374" y="566.323" fill="#F19B1F" stroke="#050505" stroke-width="5" stroke-miterlimit="10" width="293.643" height="65.28"/>
		<path d="M47.699,597.624c0,2.147,0.331,4.104,0.993,5.869c0.662,1.768,1.6,3.281,2.811,4.543s2.664,2.241,4.358,2.93
			s3.575,1.033,5.637,1.033c1.916,0,3.817-0.235,5.702-0.71c1.884-0.472,3.688-1.153,5.416-2.039v5.236
			c-1.579,0.787-3.35,1.384-5.307,1.788c-1.958,0.403-4.093,0.608-6.411,0.608c-2.885,0-5.531-0.475-7.943-1.421
			c-2.41-0.946-4.485-2.27-6.22-3.966c-1.737-1.693-3.084-3.722-4.043-6.077c-0.958-2.356-1.437-4.956-1.437-7.795
			c0-2.919,0.516-5.608,1.549-8.062c1.03-2.456,2.456-4.571,4.279-6.348c1.821-1.774,3.979-3.159,6.474-4.154
			c2.494-0.998,5.205-1.494,8.13-1.494c0.99,0,1.992,0.053,3.001,0.162c1.01,0.108,2,0.257,2.969,0.443
			c0.967,0.187,1.891,0.404,2.764,0.65c0.875,0.248,1.668,0.517,2.384,0.813v5.208c-0.737-0.295-1.559-0.591-2.462-0.889
			c-0.907-0.296-1.843-0.556-2.811-0.783c-0.969-0.226-1.958-0.407-2.969-0.546c-1.012-0.139-1.99-0.209-2.938-0.209
			c-1.979,0-3.816,0.363-5.511,1.079c-1.695,0.721-3.162,1.743-4.405,3.063c-1.242,1.321-2.222,2.92-2.937,4.793
			C48.056,593.225,47.699,595.317,47.699,597.624z"/>
		<path fill="#020202" d="M118.163,596.347c0.109,3.097-0.239,5.898-1.044,8.409c-0.808,2.51-2.016,4.651-3.626,6.429
			c-1.613,1.776-3.601,3.155-5.968,4.138c-2.366,0.98-5.063,1.5-8.095,1.555c-2.905,0.055-5.552-0.354-7.942-1.227
			c-2.389-0.873-4.446-2.137-6.168-3.79c-1.724-1.656-3.079-3.658-4.066-6.005c-0.99-2.351-1.534-4.975-1.637-7.872
			c-0.107-3.038,0.241-5.8,1.049-8.292c0.806-2.491,2.032-4.623,3.674-6.403c1.646-1.774,3.676-3.159,6.094-4.151
			c2.418-0.991,5.185-1.517,8.301-1.575c2.84-0.053,5.434,0.364,7.782,1.245c2.349,0.886,4.367,2.152,6.059,3.809
			c1.691,1.655,3.019,3.647,3.989,5.976C117.529,590.925,118.062,593.506,118.163,596.347z M111.808,597.087
			c-0.082-2.327-0.431-4.406-1.042-6.24c-0.614-1.833-1.479-3.381-2.598-4.642c-1.117-1.261-2.479-2.218-4.081-2.868
			c-1.603-0.651-3.434-0.959-5.499-0.921c-1.979,0.038-3.76,0.434-5.345,1.181c-1.583,0.75-2.921,1.786-4.013,3.109
			c-1.089,1.32-1.914,2.903-2.47,4.736c-0.555,1.836-0.795,3.856-0.717,6.064c0.078,2.207,0.444,4.213,1.097,6.017
			c0.653,1.804,1.555,3.337,2.706,4.595c1.15,1.263,2.522,2.233,4.116,2.914c1.593,0.679,3.356,1.001,5.295,0.965
			c2.061-0.039,3.89-0.403,5.488-1.093c1.597-0.689,2.933-1.672,4.003-2.943c1.071-1.276,1.87-2.828,2.395-4.662
			C111.668,601.464,111.89,599.394,111.808,597.087z"/>
		<path fill="#020202" d="M162.971,616.351h-6.095l-19.991-24.852c-0.149-0.158-0.394-0.478-0.742-0.962
			c-0.348-0.482-0.718-1.012-1.106-1.581c-0.39-0.573-0.764-1.136-1.122-1.687c-0.358-0.554-0.622-0.978-0.79-1.273v30.354h-5.748
			v-38.283h6.538l19.076,23.993c0.315,0.414,0.685,0.912,1.104,1.494c0.421,0.582,0.832,1.174,1.231,1.774
			c0.4,0.601,0.774,1.174,1.122,1.714c0.348,0.544,0.616,0.985,0.805,1.319v-30.295h5.716V616.351z"/>
		<path fill="#070707" d="M197.9,583.038h-10.296v33.313h-6.19v-33.313h-10.357v-4.971H197.9V583.038z"/>
		<path fill="#020202" d="M238.449,616.351h-6.663l-4.578-10.977H211.48l-4.263,10.977h-6.664l15.852-38.283h6.001L238.449,616.351z
			 M220.166,587.27c-0.106-0.275-0.238-0.677-0.395-1.198c-0.158-0.522-0.291-1.071-0.396-1.644h-0.126
			c-0.105,0.611-0.239,1.18-0.395,1.701c-0.159,0.524-0.311,0.961-0.457,1.318l-4.958,12.838h11.905L220.166,587.27z"/>
		<path fill="#020202" d="M248.649,597.624c0,2.147,0.334,4.104,0.998,5.869c0.663,1.768,1.598,3.281,2.809,4.543
			c1.212,1.262,2.665,2.241,4.359,2.93c1.695,0.688,3.576,1.033,5.637,1.033c1.917,0,3.818-0.235,5.699-0.71
			c1.885-0.472,3.692-1.153,5.416-2.039v5.236c-1.579,0.787-3.346,1.384-5.304,1.788c-1.957,0.403-4.096,0.608-6.409,0.608
			c-2.886,0-5.535-0.475-7.946-1.421c-2.41-0.946-4.482-2.27-6.22-3.966c-1.737-1.693-3.087-3.722-4.042-6.077
			c-0.959-2.356-1.438-4.956-1.438-7.795c0-2.919,0.519-5.608,1.548-8.062c1.032-2.456,2.458-4.571,4.279-6.348
			c1.821-1.774,3.981-3.159,6.475-4.154c2.496-0.998,5.205-1.494,8.133-1.494c0.988,0,1.989,0.053,3.002,0.162
			c1.007,0.108,1.999,0.257,2.967,0.443c0.969,0.187,1.888,0.404,2.763,0.65c0.874,0.248,1.668,0.517,2.386,0.813v5.208
			c-0.739-0.295-1.559-0.591-2.465-0.889c-0.903-0.296-1.842-0.556-2.811-0.783c-0.967-0.226-1.957-0.407-2.967-0.546
			c-1.012-0.139-1.99-0.209-2.939-0.209c-1.98,0-3.815,0.363-5.509,1.079c-1.696,0.721-3.165,1.743-4.407,3.063
			c-1.242,1.321-2.221,2.92-2.936,4.793C249.008,593.225,248.649,595.317,248.649,597.624z"/>
		<path fill="#070707" d="M306.287,583.038h-10.295v33.313h-6.191v-33.313h-10.358v-4.971h26.845V583.038z"/>
		
			<rect x="320.363" y="566.323" fill="#070707" stroke="#050505" stroke-width="5" stroke-miterlimit="10" width="137.816" height="65.28"/>
		<path fill="#F19B1F" d="M350.763,591.164c0-1.953-0.509-3.47-1.532-4.555c-1.022-1.085-2.511-1.628-4.468-1.628
			c-0.862,0-1.778,0.123-2.749,0.369c-0.969,0.247-1.92,0.577-2.855,0.993c-0.938,0.414-1.833,0.886-2.688,1.419
			c-0.85,0.531-1.583,1.084-2.192,1.656v-5.354c0.609-0.532,1.324-1.038,2.147-1.51c0.82-0.473,1.709-0.887,2.668-1.242
			c0.96-0.354,1.974-0.64,3.046-0.857c1.077-0.215,2.181-0.324,3.318-0.324c1.831,0,3.484,0.24,4.959,0.723
			c1.472,0.484,2.721,1.18,3.742,2.087c1.019,0.908,1.811,1.997,2.369,3.268c0.557,1.271,0.835,2.697,0.835,4.277
			c0,1.635-0.216,3.12-0.647,4.45c-0.431,1.331-1.031,2.604-1.798,3.817c-0.77,1.212-1.676,2.415-2.719,3.609
			c-1.04,1.192-2.185,2.49-3.426,3.89l-6.915,7.868h16.863v4.793h-24.317v-4.172l9.633-11.152c1.011-1.183,1.93-2.267,2.763-3.255
			c0.83-0.985,1.544-1.95,2.132-2.896c0.59-0.949,1.043-1.924,1.358-2.929C350.604,593.501,350.763,592.388,350.763,591.164z"/>
		<path fill="#F19B1F" d="M393.842,609.033h-5.875v9.88h-6.03v-9.88h-17.277l-0.378-1.746c0.231-1.242,0.73-2.671,1.501-4.29
			c0.765-1.615,1.699-3.303,2.793-5.059c1.096-1.756,2.301-3.52,3.617-5.294c1.313-1.777,2.631-3.449,3.948-5.015
			c1.315-1.569,2.576-2.974,3.79-4.216c1.209-1.242,2.268-2.209,3.173-2.899h4.863v24.052h5.875V609.033z M381.937,604.566v-14.792
			c0-0.277,0-0.588,0-0.933c0-0.344,0.018-0.705,0.062-1.079c-0.104,0.1-0.178,0.201-0.222,0.311
			c-0.042,0.108-0.114,0.213-0.221,0.31c-0.314,0.296-0.748,0.75-1.294,1.361c-0.551,0.611-1.154,1.33-1.814,2.161
			c-0.664,0.826-1.37,1.745-2.117,2.752c-0.748,1.003-1.474,2.06-2.179,3.163c-0.707,1.104-1.375,2.23-2.007,3.373
			s-1.181,2.267-1.641,3.373H381.937z"/>
		<path fill="#F19B1F" d="M422.675,594.624l-9.633,11.864c0.758,0.946,1.554,1.949,2.385,3.003s1.668,2.125,2.512,3.208
			c0.842,1.085,1.677,2.154,2.51,3.211c0.832,1.056,1.616,2.057,2.353,3.003h-6.725l-5.752-7.868
			c-0.123-0.198-0.295-0.449-0.502-0.755c-0.212-0.306-0.37-0.519-0.474-0.636c-0.104,0.117-0.259,0.33-0.46,0.636
			c-0.198,0.306-0.36,0.557-0.488,0.755l-5.907,7.868h-6.599l10.042-12.247c-0.734-0.948-1.506-1.932-2.304-2.959
			c-0.8-1.024-1.603-2.055-2.4-3.092c-0.8-1.031-1.597-2.056-2.386-3.062c-0.791-1.004-1.551-1.979-2.29-2.93h6.727l5.053,7.071
			c0.064,0.101,0.154,0.237,0.27,0.416c0.115,0.178,0.237,0.358,0.362,0.548c0.127,0.186,0.241,0.374,0.349,0.561
			c0.104,0.187,0.19,0.33,0.255,0.43c0.063-0.118,0.151-0.272,0.267-0.458c0.113-0.188,0.237-0.383,0.363-0.579
			c0.123-0.195,0.247-0.378,0.363-0.546c0.115-0.167,0.204-0.291,0.268-0.371c0.947-1.241,1.836-2.426,2.67-3.55
			c0.831-1.124,1.729-2.298,2.699-3.521H422.675z"/>
		<path fill="#F19B1F" d="M453.657,582.2c-1.749,2.938-3.454,5.897-5.116,8.874c-1.664,2.98-3.254,5.991-4.768,9.04
			c-1.518,3.045-2.934,6.132-4.249,9.26c-1.316,3.126-2.511,6.306-3.583,9.539h-6.193v-1.329c0.61-1.658,1.317-3.428,2.119-5.314
			c0.797-1.882,1.667-3.809,2.604-5.781c0.935-1.974,1.909-3.942,2.922-5.916c1.01-1.973,2.015-3.876,3.014-5.711
			c1.001-1.834,1.985-3.55,2.955-5.146c0.966-1.6,1.862-3.009,2.684-4.23H427.35v-4.852h25.107L453.657,582.2z"/>
	</g>
</g>
</svg>
